<?xml version="1.0" standalone="yes"?>
<svg xmlns="http://www.w3.org/2000/svg" width="300" height="300">
<path style="fill:#fbbc08; stroke:none;" d="M142 55L142 56L148 56L142 55z"/>
<path style="fill:#eb4335; stroke:none;" d="M97 132C111.279 94.0935 154.72 81.4946 186 107L187 107L213 79C186.511 59.0114 154.777 49.172 122 59.6061C104.293 65.243 88.4997 75.6651 76.6259 90.0003C73.2634 94.0598 66.8164 101.069 67.8773 106.854C69.5756 116.115 89.6121 126.985 97 132z"/>
<path style="fill:#fbbc08; stroke:none;" d="M153 55L153 56L159 56L153 55M134.667 56.3333L135.333 56.6667L134.667 56.3333M165.667 56.3333L166.333 56.6667L165.667 56.3333M129 57L130 58L129 57M170.667 57.3333L171.333 57.6667L170.667 57.3333M125 58L126 59L125 58M174.667 58.3333L175.333 58.6667L174.667 58.3333M178 59L179 60L178 59M118.667 60.3333L119.333 60.6667L118.667 60.3333M181 60L182 61L181 60M116 61L117 62L116 61M184 61L185 62L184 61M113 62L114 63L113 62M186 62L187 63L186 62M111 63L112 64L111 63M109 64L110 65L109 64M107 65L108 66L107 65M105 66L106 67L105 66M103 67L104 68L103 67M196 67L197 68L196 67M101 68L102 69L101 68M198 68L199 69L198 68M98 70L99 71L98 70M201 70L202 71L201 70M95 72L96 73L95 72M204 72L206 74L204 72M91 75L90 77L91 75M209 76L211 78L209 76M84 81L80 86L84 81M75 91L76 92L75 91M140.667 93.3333L141.333 93.6667L140.667 93.3333M158.667 93.3333L159.333 93.6667L158.667 93.3333M136 94L137 95L136 94M163.667 94.3333L164.333 94.6667L163.667 94.3333M72 95L73 96L72 95M132.667 95.3333L133.333 95.6667L132.667 95.3333M167 95L168 96L167 95M130 96L131 97L130 96M172 97L173 98L172 97M70 98L71 99L70 98M125 98L126 99L125 98M174 98L175 99L174 98M68 101L69 102L68 101M120 101L121 102L120 101M179 101L180 102L179 101M67 103L68 104L67 103M117 103L118 104L117 103M183 104L185 106L183 104M66 105L67 106L66 105M65 107C53.2242 136.779 53.2241 163.221 65 193C73.3039 187.091 91.1433 177.528 94.8694 167.784C96.981 162.262 93.8946 153.936 94.062 148C94.206 142.894 96.9285 136.062 94.4588 131.306C89.4972 121.752 73.6604 113.163 65 107M112 107L109 111L112 107M105 115L106 116L105 115M101 121L102 122L101 121M100 123L101 124L100 123M99 125L100 126L99 125M98 127L99 128L98 127z"/>
<path style="fill:#4487f4; stroke:none;" d="M150 132L150 169L201 169C198.158 180.698 192.264 189.349 183 197L212 222L213 222C237.101 196.918 243.48 165.656 239 132L150 132z"/>
<path style="fill:#34a952; stroke:none;" d="M96 168C88.9994 173.905 69.5907 183.794 67.7912 193.146C66.1297 201.78 79.5774 213.701 85.0095 218.901C107.927 240.838 140.231 248.586 171 242.679C181.992 240.569 192.687 236.548 201.991 230.273C204.964 228.269 211.138 224.762 209.279 220.318C207.596 216.298 202.295 213.347 199 210.779C194.423 207.212 188.887 201.23 183 200.1C177.963 199.132 172.654 202.983 168 204.433C160.01 206.921 151.303 207.626 143 206.576C119.698 203.63 107.424 186.329 96 168z"/>
</svg>
